<svg width="258" height="23" viewBox="0 0 258 23" fill="none" xmlns="http://www.w3.org/2000/svg">
<path d="M0.811951 20.9999V1.203H8.57758C13.0756 1.203 15.6596 3.97839 15.6596 7.87488C15.6596 11.826 13.0346 14.5468 8.4682 14.5468H4.91351V20.9999H0.811951ZM4.91351 11.2382H7.81195C10.2455 11.2382 11.435 9.87097 11.4213 7.87488C11.435 5.90613 10.2455 4.57996 7.81195 4.56628H4.91351V11.2382ZM21.3821 1.203V20.9999H17.3352V1.203H21.3821ZM30.3585 21.3007C25.8741 21.287 23.0714 18.2108 23.0851 13.6171C23.0714 9.03699 25.8741 5.96082 30.3585 5.96082C34.8566 5.96082 37.6456 9.03699 37.6593 13.6171C37.6456 18.2108 34.8566 21.287 30.3585 21.3007ZM27.1866 13.6171C27.1866 16.2147 28.2667 18.1425 30.3859 18.1561C32.4503 18.1425 33.5441 16.2147 33.5304 13.6171C33.5441 11.0057 32.4503 9.05066 30.3859 9.05066C28.2667 9.05066 27.1866 11.0057 27.1866 13.6171ZM46.0341 21.3007C41.5498 21.287 38.747 18.2108 38.7607 13.6171C38.747 9.03699 41.5498 5.96082 46.0341 5.96082C50.5322 5.96082 53.3212 9.03699 53.3349 13.6171C53.3212 18.2108 50.5322 21.287 46.0341 21.3007ZM42.8623 13.6171C42.8623 16.2147 43.9423 18.1425 46.0615 18.1561C48.1259 18.1425 49.2197 16.2147 49.206 13.6171C49.2197 11.0057 48.1259 9.05066 46.0615 9.05066C43.9423 9.05066 42.8623 11.0057 42.8623 13.6171ZM59.0848 12.4139V20.9999H55.0379V6.15222H58.8934V8.74988H59.0574C59.7273 7.04089 61.3133 5.96082 63.5145 5.96082C66.618 5.96082 68.6414 8.07996 68.6277 11.5389V20.9999H64.6082V12.2499C64.5945 10.4178 63.6102 9.3241 61.9285 9.3241C60.2469 9.3241 59.0848 10.4589 59.0848 12.4139ZM77.6588 21.3007C73.1061 21.287 70.317 18.3475 70.3307 13.6444C70.317 9.06433 73.1471 5.96082 77.4948 5.96082C81.3913 5.96082 84.4674 8.42175 84.4674 13.4803V14.6288H74.3229C74.3229 16.871 75.6491 18.2518 77.7409 18.2655C79.1217 18.2518 80.1061 17.6503 80.5026 16.7616H84.358C83.7838 19.5096 81.3229 21.287 77.6588 21.3007ZM74.3229 12.0858H80.6393C80.6256 10.2811 79.3815 8.9823 77.5768 8.99597C75.7174 8.9823 74.4049 10.3768 74.3229 12.0858ZM93.9907 6.15222V9.18738H91.2016V16.4335C91.188 17.6229 91.7759 17.91 92.5962 17.9374C93.0063 17.9374 93.7173 17.8964 94.2094 17.8553V21.0546C93.7719 21.1229 93.0473 21.205 92.0493 21.1913C89.1235 21.205 87.1274 19.8925 87.1548 17.0077V9.18738H85.104V6.15222H87.1548V2.59753H91.2016V6.15222H93.9907ZM108.826 14.1366H112.354L113.858 16.0643C114.801 14.9706 115.348 13.2889 115.334 11.1014C115.348 6.86316 113.324 4.57996 110.276 4.56628C107.199 4.57996 105.19 6.86316 105.19 11.1014C105.19 15.326 107.199 17.6229 110.276 17.6366C110.672 17.6366 111.055 17.5956 111.41 17.5135L108.826 14.1366ZM101.006 11.1014C101.006 4.63464 104.998 0.929565 110.276 0.929565C115.512 0.929565 119.518 4.63464 119.518 11.1014C119.518 14.6425 118.315 17.3495 116.373 19.0858L119.19 22.6405H115.334L113.748 20.6718C112.682 21.0682 111.506 21.2733 110.276 21.2733C104.998 21.2733 101.006 17.5409 101.006 11.1014ZM131.092 14.6835V6.15222H135.139V20.9999H131.256V18.3202H131.092C130.422 20.0428 128.822 21.1913 126.58 21.1913C123.613 21.1913 121.576 19.0858 121.576 15.6132V6.15222H125.623V14.9022C125.623 16.6659 126.635 17.7596 128.221 17.7733C129.697 17.7596 131.092 16.7069 131.092 14.6835ZM137.443 20.9999V6.15222H141.49V20.9999H137.443ZM137.252 2.16003C137.252 1.0116 138.25 0.0955811 139.467 0.0819092C140.67 0.0955811 141.668 1.0116 141.654 2.16003C141.668 3.28113 140.67 4.21082 139.467 4.21082C138.25 4.21082 137.252 3.28113 137.252 2.16003ZM150.466 21.3007C145.914 21.287 143.179 18.1425 143.193 13.6171C143.179 9.078 145.968 5.96082 150.466 5.96082C154.295 5.96082 156.892 8.18933 157.056 11.5936H153.256C153.009 10.1307 152.052 9.11902 150.521 9.10535C148.58 9.11902 147.295 10.746 147.295 13.5624C147.295 16.4335 148.552 18.0741 150.521 18.0741C151.943 18.0741 152.996 17.1854 153.256 15.6132H157.056C156.879 18.9764 154.404 21.287 150.466 21.3007ZM158.732 20.9999V1.203H162.779V11.8397H162.998L167.81 6.15222H172.459L166.921 12.578L172.759 20.9999H168.001L163.914 14.9569L162.779 16.2421V20.9999H158.732ZM181.982 10.5546C181.804 9.5155 180.902 8.84558 179.548 8.83191C178.236 8.84558 177.238 9.46082 177.251 10.3632C177.238 11.0331 177.757 11.5526 179.165 11.8397L181.818 12.3866C184.702 12.9882 186.097 14.2733 186.111 16.4061C186.097 19.3319 183.472 21.287 179.521 21.3007C175.515 21.287 173.163 19.496 172.822 16.5975H176.896C177.087 17.7596 178.031 18.3612 179.521 18.3749C180.997 18.3612 181.982 17.7733 181.982 16.8163C181.982 16.0507 181.353 15.5721 179.958 15.285L177.497 14.7928C174.667 14.2323 173.218 12.7831 173.232 10.5819C173.218 7.73816 175.665 5.96082 179.494 5.96082C183.24 5.96082 185.564 7.73816 185.783 10.5546H181.982ZM194.486 21.3007C189.933 21.287 187.144 18.3475 187.157 13.6444C187.144 9.06433 189.974 5.96082 194.321 5.96082C198.218 5.96082 201.294 8.42175 201.294 13.4803V14.6288H191.15C191.15 16.871 192.476 18.2518 194.568 18.2655C195.948 18.2518 196.933 17.6503 197.329 16.7616H201.185C200.611 19.5096 198.15 21.287 194.486 21.3007ZM191.15 12.0858H197.466C197.452 10.2811 196.208 8.9823 194.404 8.99597C192.544 8.9823 191.232 10.3768 191.15 12.0858ZM202.997 20.9999V6.15222H206.907V8.72253H207.071C207.605 6.90417 208.985 5.93347 210.653 5.93347C211.064 5.93347 211.583 5.98816 211.939 6.07019V9.67957C211.556 9.55652 210.776 9.46082 210.216 9.46082C208.384 9.46082 207.03 10.7323 207.044 12.5507V20.9999H202.997ZM227.313 6.15222L222.091 20.9999H217.552L212.356 6.15222H216.622L219.739 16.8163H219.903L223.02 6.15222H227.313ZM234.676 21.3007C230.124 21.287 227.335 18.3475 227.348 13.6444C227.335 9.06433 230.165 5.96082 234.512 5.96082C238.409 5.96082 241.485 8.42175 241.485 13.4803V14.6288H231.341C231.341 16.871 232.667 18.2518 234.759 18.2655C236.139 18.2518 237.124 17.6503 237.52 16.7616H241.376C240.801 19.5096 238.341 21.287 234.676 21.3007ZM231.341 12.0858H237.657C237.643 10.2811 236.399 8.9823 234.594 8.99597C232.735 8.9823 231.423 10.3768 231.341 12.0858ZM253.333 8.31238L251.692 4.21082V8.31238H249.942V1.203H252.047L253.825 5.90613L255.602 1.203H257.708V8.31238H255.958V4.21082L254.317 8.31238H253.333ZM242.586 2.65222V1.203H248.684V2.65222H246.524V8.31238H244.747V2.65222H242.586Z" fill="url(#paint0_linear_1_1596)"/>
<defs>
<linearGradient id="paint0_linear_1_1596" x1="-1" y1="-5.00012" x2="6.75938" y2="58.0449" gradientUnits="userSpaceOnUse">
<stop stop-color="#FF4E83"/>
<stop offset="1" stop-color="#FFBB54"/>
</linearGradient>
</defs>
</svg>
